<svg width="14" height="14" viewBox="0 0 14 14" fill="none" xmlns="http://www.w3.org/2000/svg">
  <path fill-rule="evenodd" clip-rule="evenodd" d="M13.0303 0.96967C13.3232 1.26256 13.3232 1.73744 13.0303 2.03033L2.03033 13.0303C1.73744 13.3232 1.26256 13.3232 0.96967 13.0303C0.676777 12.7374 0.676777 12.2626 0.96967 11.9697L11.9697 0.96967C12.2626 0.676777 12.7374 0.676777 13.0303 0.96967Z" fill="white"/>
  <path fill-rule="evenodd" clip-rule="evenodd" d="M0.96967 0.96967C1.26256 0.676777 1.73744 0.676777 2.03033 0.96967L13.0303 11.9697C13.3232 12.2626 13.3232 12.7374 13.0303 13.0303C12.7374 13.3232 12.2626 13.3232 11.9697 13.0303L0.96967 2.03033C0.676777 1.73744 0.676777 1.26256 0.96967 0.96967Z" fill="white"/>
</svg>
